<?xml version="1.0" standalone="no"?>
<!DOCTYPE svg PUBLIC "-//W3C//DTD SVG 20010904//EN"
 "http://www.w3.org/TR/2001/REC-SVG-20010904/DTD/svg10.dtd">
<svg version="1.0" xmlns="http://www.w3.org/2000/svg"
 width="418.000000pt" height="293.000000pt" viewBox="0 0 418.000000 293.000000"
 preserveAspectRatio="xMidYMid meet">

<g transform="translate(0.000000,293.000000) scale(0.100000,-0.100000)"
fill="#000000" stroke="none">
<path d="M2245 2799 c-68 -21 -143 -99 -188 -192 -19 -40 -37 -84 -41 -99 -10
-45 -46 -31 -46 18 0 21 -59 114 -99 157 -20 21 -55 50 -78 65 -24 15 -43 30
-43 35 0 4 -8 7 -18 7 -10 0 -23 5 -30 12 -6 6 -13 10 -16 7 -5 -5 18 -130 38
-202 9 -32 16 -60 16 -62 0 -3 10 -5 23 -5 35 0 47 -19 47 -76 0 -47 2 -52 25
-58 20 -5 25 -13 25 -36 0 -32 -18 -40 -42 -17 -55 50 -179 99 -285 113 -49 6
-199 -19 -213 -36 -3 -3 -21 -14 -41 -23 -45 -21 -67 -44 -41 -43 108 0 181
-6 195 -16 9 -7 18 -25 19 -40 3 -33 -1 -32 45 -13 49 21 56 19 74 -18 19 -38
39 -44 84 -23 44 21 49 20 71 -9 10 -13 31 -29 46 -34 15 -6 28 -17 28 -25 0
-17 -20 -23 -95 -29 -60 -5 -162 -32 -192 -53 -12 -7 -27 -14 -33 -14 -6 0
-18 -6 -25 -12 -8 -7 -29 -24 -47 -37 -36 -26 -88 -102 -88 -130 0 -9 -5 -22
-12 -29 -20 -20 -2 -23 33 -5 19 10 36 21 37 26 2 4 10 7 18 7 8 0 14 4 14 9
0 8 31 22 54 25 5 1 19 -16 30 -36 24 -43 36 -48 51 -22 5 10 18 26 28 35 9 9
17 21 17 28 0 16 43 14 66 -4 28 -21 42 -18 68 12 21 25 25 26 64 16 l42 -11
0 34 0 34 49 0 c28 0 52 -3 54 -7 2 -5 1 -80 -4 -168 -4 -88 -13 -284 -19
-435 -6 -151 -15 -279 -21 -285 -6 -6 -41 24 -100 84 l-90 93 -28 -33 c-16
-19 -37 -44 -48 -57 -15 -20 -23 -22 -43 -14 -35 13 -90 29 -126 37 -25 5 -33
2 -38 -12 -10 -29 -41 -76 -53 -80 -6 -2 -26 25 -43 61 -18 37 -34 66 -36 66
-2 0 -10 -16 -20 -35 -15 -33 -17 -34 -60 -28 -30 4 -49 1 -60 -8 -18 -14
-112 -19 -154 -7 -29 8 -47 47 -56 123 -3 28 -9 59 -14 70 -5 11 -11 34 -15
50 -3 17 -10 48 -15 70 -5 22 -16 72 -23 111 -14 72 -31 113 -39 98 -16 -31
-54 -215 -69 -334 -5 -41 -14 -88 -19 -104 -6 -16 -10 -42 -10 -57 0 -44 -20
-46 -57 -6 -37 41 -53 46 -53 19 0 -18 -19 -31 -102 -67 -37 -16 -56 -44 -20
-30 9 3 31 9 47 12 17 4 32 9 35 13 3 3 19 16 36 28 l32 22 39 -45 40 -46 11
38 c6 21 13 56 16 78 3 22 11 63 16 90 6 28 17 88 25 135 27 162 44 186 63 88
7 -35 17 -77 22 -93 6 -17 12 -53 16 -80 3 -28 9 -59 14 -70 4 -11 14 -42 20
-68 13 -50 32 -67 74 -67 14 0 28 -4 31 -10 3 -5 15 -10 26 -10 10 0 28 5 39
10 11 6 29 15 40 20 11 6 31 10 44 10 14 0 28 -4 31 -10 10 -15 52 -12 59 5
10 27 23 16 53 -43 20 -40 32 -55 39 -47 13 16 31 46 50 83 17 34 41 40 86 23
13 -5 43 -15 67 -22 l44 -13 42 47 c22 26 44 47 48 47 4 0 35 -30 70 -67 73
-78 137 -143 140 -143 1 0 4 46 5 102 2 57 7 171 11 253 5 83 8 164 8 180 0
17 5 124 11 239 10 167 9 211 -1 218 -6 4 -40 8 -74 8 l-62 0 -3 -32 c-3 -31
-5 -33 -38 -30 -25 2 -43 -4 -59 -19 l-23 -22 -40 21 c-49 24 -62 21 -82 -23
-9 -19 -21 -37 -26 -40 -12 -8 -60 39 -60 59 0 13 -11 9 -52 -19 -52 -34 -78
-43 -78 -27 0 16 61 93 78 99 9 4 19 10 22 14 9 13 99 59 115 59 8 0 23 4 33
9 37 20 102 31 209 39 l113 7 -58 30 c-31 17 -58 33 -60 38 -2 4 -10 7 -18 7
-18 0 -54 31 -54 48 0 21 -24 24 -56 7 -47 -24 -70 -19 -95 21 -17 28 -26 34
-43 29 -66 -21 -68 -20 -66 23 1 9 -61 21 -112 21 -57 1 -49 27 15 46 122 37
204 28 342 -37 65 -31 83 -43 125 -82 l40 -37 0 75 c0 70 -1 75 -22 78 -21 3
-23 9 -26 64 -3 61 -3 62 -36 68 -39 7 -50 29 -64 116 -5 30 -11 61 -13 69 -7
28 27 22 66 -11 63 -52 125 -119 125 -134 0 -8 4 -14 8 -14 12 0 45 -97 57
-170 l11 -65 18 60 c10 33 22 64 27 70 5 5 9 17 9 26 0 21 50 133 62 137 4 2
8 9 8 15 1 28 115 127 147 127 7 0 2 -72 -8 -117 -15 -64 -23 -77 -46 -81 -15
-2 -19 -9 -15 -32 4 -27 1 -30 -22 -30 -23 0 -26 -4 -26 -35 0 -28 -4 -35 -20
-35 -17 0 -20 -7 -20 -40 0 -22 -4 -40 -8 -40 -9 0 -42 -70 -42 -88 0 -7 16
-12 40 -12 34 0 42 4 50 26 9 22 14 25 40 19 26 -6 30 -4 30 13 0 20 47 52 77
52 7 0 13 4 13 9 0 7 23 15 80 27 104 22 133 25 182 20 57 -6 118 -32 126 -54
3 -9 -19 -12 -80 -12 -77 0 -84 -2 -93 -22 -8 -18 -18 -23 -48 -22 -31 1 -38
-3 -43 -21 -3 -12 -18 -29 -34 -38 -26 -16 -31 -16 -79 0 l-51 16 -26 -27
c-15 -14 -32 -26 -40 -26 -16 0 -74 -33 -74 -42 0 -5 -7 -8 -15 -8 -8 0 -15
-4 -15 -10 0 -6 60 -10 160 -10 144 0 163 -2 197 -21 21 -12 40 -24 43 -28 3
-3 14 -11 25 -17 47 -26 121 -151 101 -172 -4 -3 -31 7 -61 23 -45 23 -57 26
-70 15 -8 -7 -15 -19 -15 -26 0 -22 -36 -16 -53 9 -8 12 -29 37 -47 56 l-32
33 -25 -26 c-13 -14 -26 -26 -29 -26 -14 0 -190 63 -199 71 -5 5 -15 9 -22 9
-17 0 -18 -389 -2 -675 11 -191 13 -202 37 -235 14 -19 30 -38 36 -42 9 -6 36
0 46 11 7 8 150 103 178 118 26 14 36 7 122 -79 l47 -46 34 26 c19 15 40 34
47 44 7 10 20 18 28 18 13 0 131 -84 146 -104 3 -5 24 6 45 25 63 55 106 89
115 89 5 0 14 -11 20 -25 6 -14 15 -25 20 -25 4 0 8 -7 8 -15 0 -8 5 -15 10
-15 6 0 10 6 10 13 0 7 9 19 20 27 11 8 20 19 20 26 0 6 9 19 21 30 20 18 21
18 40 -6 10 -14 19 -29 19 -34 0 -5 6 -17 14 -25 8 -9 27 -41 42 -71 l29 -55
8 65 c4 36 12 97 17 135 6 39 15 120 20 180 5 61 14 126 20 146 5 20 10 48 10
63 0 16 5 26 15 26 8 0 15 -9 15 -19 0 -11 5 -23 10 -26 6 -3 10 -17 10 -30 0
-13 4 -26 9 -29 5 -4 12 -25 16 -48 4 -23 12 -51 18 -63 24 -47 27 -56 27 -74
0 -11 4 -22 9 -25 5 -4 12 -25 16 -48 4 -23 11 -49 15 -58 5 -8 15 -32 22 -53
l14 -37 44 40 c24 21 56 44 72 49 24 9 30 7 40 -12 23 -44 34 -48 59 -21 17
19 20 27 11 36 -9 9 -12 9 -12 0 0 -22 -36 -12 -50 13 -16 30 -39 32 -68 7
-41 -36 -73 -57 -85 -57 -6 0 -17 18 -23 40 -12 46 -22 73 -35 97 -5 10 -9 27
-9 37 0 11 -4 23 -10 26 -5 3 -12 28 -16 55 -4 28 -10 50 -15 50 -5 0 -9 9 -9
19 0 11 -4 23 -10 26 -5 3 -10 19 -10 35 0 16 -4 31 -9 34 -5 4 -12 25 -16 48
-9 49 -24 78 -42 78 -15 0 -20 -20 -28 -110 -3 -36 -10 -94 -15 -130 -6 -36
-14 -112 -20 -170 -15 -169 -20 -192 -36 -188 -9 2 -30 30 -47 63 -42 79 -56
94 -68 72 -5 -9 -15 -22 -23 -29 -7 -7 -18 -23 -25 -36 -12 -22 -51 -31 -51
-12 0 6 -8 20 -18 30 -18 20 -19 20 -52 -8 -19 -15 -51 -42 -71 -60 -36 -31
-69 -42 -69 -22 0 6 -5 10 -11 10 -7 0 -19 8 -28 18 -9 10 -31 27 -48 37 -18
11 -33 23 -33 27 0 16 -16 7 -64 -37 -28 -25 -54 -45 -59 -45 -5 0 -23 15 -41
33 -18 17 -48 47 -67 64 l-35 33 -65 -43 c-36 -23 -77 -48 -92 -56 -15 -8 -36
-23 -48 -34 -24 -22 -44 -16 -63 19 -6 10 -15 22 -20 26 -12 8 -30 681 -21
766 5 51 10 62 25 62 10 0 22 -4 25 -10 3 -5 13 -10 21 -10 8 0 33 -9 57 -19
70 -32 94 -34 116 -10 l19 21 40 -43 c22 -24 50 -55 61 -69 15 -18 20 -21 21
-9 0 9 11 28 24 44 l24 27 65 -31 c36 -17 68 -31 71 -31 10 0 6 43 -7 80 -31
87 -84 147 -170 194 -44 24 -57 26 -167 26 -96 0 -120 3 -120 14 0 12 28 25
53 25 4 0 16 10 26 23 14 17 22 20 32 12 42 -33 114 -24 138 18 14 25 21 28
54 26 32 -2 40 2 50 22 12 24 17 25 110 26 53 0 100 4 104 8 14 14 -72 81
-121 94 -87 23 -227 9 -321 -32 -81 -35 -110 -51 -118 -63 -18 -29 -52 -10
-62 34 -6 29 -4 34 20 43 16 6 26 17 24 27 -3 36 2 43 31 43 29 0 40 13 20 25
-17 10 -11 37 9 42 15 4 24 22 35 73 9 38 16 81 16 95 0 15 5 35 11 46 17 32
7 35 -46 18z m-125 -479 c0 -13 -7 -20 -20 -20 -19 0 -27 20 -13 33 13 14 33
6 33 -13z"/>
<path d="M458 750 c-73 -40 -118 -129 -118 -238 0 -34 4 -70 9 -80 6 -9 12
-29 16 -44 8 -39 62 -98 110 -119 49 -23 130 -24 180 -4 45 20 90 65 110 111
20 48 12 62 -35 58 -44 -3 -60 -10 -60 -27 0 -6 -12 -24 -27 -39 -32 -33 -93
-38 -133 -11 -33 22 -36 28 -56 90 -15 46 -15 61 -4 114 18 83 62 129 123 129
47 0 81 -23 97 -66 8 -21 16 -24 61 -24 l52 0 -7 32 c-8 43 -28 71 -72 105
-33 25 -47 28 -123 31 -70 2 -93 -2 -123 -18z"/>
<path d="M1058 760 c-1 -5 -2 -118 0 -250 l3 -240 44 0 45 0 0 250 0 250 -44
0 c-24 0 -46 -4 -48 -10z"/>
<path d="M1442 728 c3 -36 7 -44 27 -46 12 -2 34 -1 47 2 20 5 24 13 24 46 l0
40 -51 0 -50 0 3 -42z"/>
<path d="M3667 734 c-4 -4 -7 -29 -7 -56 0 -45 -2 -48 -25 -48 -21 0 -25 -5
-25 -29 0 -22 6 -30 25 -35 25 -6 25 -6 25 -130 0 -155 7 -167 99 -174 l61 -4
0 35 c0 31 -3 36 -27 39 l-28 3 -3 113 -3 112 31 6 c25 5 30 11 30 35 0 23 -5
28 -27 31 -26 3 -28 7 -33 53 l-5 50 -40 3 c-23 2 -44 0 -48 -4z"/>
<path d="M1927 635 c-79 -28 -112 -90 -105 -203 6 -115 58 -169 161 -165 35 1
55 7 73 24 l24 22 0 -40 c0 -76 -89 -124 -135 -73 -13 15 -31 20 -67 20 -26 0
-48 -4 -48 -9 0 -83 157 -131 266 -80 73 35 78 51 82 292 l4 207 -51 0 c-39 0
-51 -4 -51 -15 0 -8 -4 -15 -10 -15 -5 0 -10 4 -10 9 0 8 -34 24 -75 35 -11 3
-37 -1 -58 -9z m93 -75 c5 0 21 -12 35 -27 21 -23 25 -38 25 -85 0 -51 -3 -59
-31 -82 -39 -33 -73 -33 -104 0 -20 22 -25 38 -25 80 0 29 5 64 11 76 11 26
46 48 67 42 8 -2 18 -4 22 -4z"/>
<path d="M2580 637 c-74 -24 -116 -78 -126 -158 -12 -101 22 -171 101 -208 56
-26 124 -27 174 -1 41 20 81 63 81 86 0 20 -96 19 -103 0 -7 -18 -67 -31 -96
-21 -44 14 -84 84 -48 86 6 0 62 0 122 -1 61 0 116 4 124 9 10 7 12 22 7 65
-6 47 -14 64 -44 95 -53 56 -119 72 -192 48z m99 -82 c26 -13 41 -33 41 -56 0
-5 -38 -9 -85 -9 -47 0 -85 2 -85 5 0 17 26 55 44 63 30 15 53 14 85 -3z"/>
<path d="M3146 640 c-60 -19 -102 -81 -92 -136 8 -40 38 -66 97 -83 106 -30
124 -38 128 -56 4 -22 -24 -45 -55 -45 -34 0 -73 20 -79 42 -5 14 -16 18 -56
18 -54 0 -57 -5 -33 -55 40 -86 229 -102 298 -26 10 11 21 41 23 66 5 42 3 48
-29 78 -26 25 -53 37 -111 50 -77 19 -98 36 -76 63 19 23 85 18 103 -7 17 -25
94 -35 103 -14 8 21 -25 74 -56 90 -37 19 -127 27 -165 15z"/>
<path d="M1440 450 l0 -180 50 0 50 0 0 180 0 180 -50 0 -50 0 0 -180z"/>
</g>
</svg>
